<?xml version="1.0" encoding="utf-8"?>
<!-- Generator: Adobe Illustrator 25.0.1, SVG Export Plug-In . SVG Version: 6.00 Build 0)  -->
<svg version="1.1" id="Layer_1" xmlns="http://www.w3.org/2000/svg" xmlns:xlink="http://www.w3.org/1999/xlink" x="0px" y="0px"
	 viewBox="0 0 48 48" style="enable-background:new 0 0 48 48;" xml:space="preserve">
<style type="text/css">
	.st0{fill-rule:evenodd;clip-rule:evenodd;fill:#FFFFFF;}
</style>
<g>
	<path class="st0" d="M24,0.3C10.9,0.3,0.3,10.9,0.3,24S10.9,47.7,24,47.7S47.7,37.1,47.7,24S37.1,0.3,24,0.3z M35.8,37h-8.1v-2.6
		c-1.8,2-4.1,3-7.1,3c-5,0-8.5-3.5-8.5-7.6c0-2.5,0.8-4.4,2.2-5.6c-1.1-1-1.8-2.2-1.8-3.7c0-6,4.7-9.3,12.5-9.3
		c2.8,0,6.7,0.5,9.5,1.1l-0.9,5.8c-2.8-0.4-5.6-0.5-7.8-0.5c-3.5,0-4.6,0.5-5,2.3c-0.2,1.3,0.8,2.4,1.7,2.4h4.8h8.5V37z"/>
	<path class="st0" d="M20.7,29.6c0,1.4,0.8,2.2,2.9,2.2c2.2,0,3.7-1.8,3.7-4v-0.6h-3.6C21.9,27.2,20.7,28,20.7,29.6z"/>
</g>
</svg>
