<?xml version="1.0" encoding="UTF-8"?>
<svg width="69px" height="13px" viewBox="0 0 69 13" version="1.1" xmlns="http://www.w3.org/2000/svg" xmlns:xlink="http://www.w3.org/1999/xlink">
    <title>7DA01D3A-B39B-40F6-AAAA-ABBAFB5257AC</title>
    <g id="Chat-Section---For-Dev" stroke="none" stroke-width="1" fill="none" fill-rule="evenodd">
        <g id="Nolands-Homepage-V1.3-Extra-Designs----Chat-Section-(Not-approved)-Copy-2" transform="translate(-81.000000, -1426.000000)" fill="#0042d7">
            <g id="sec/footer" transform="translate(0.005000, 954.000000)">
                <g id="sec/footer-info-copyright" transform="translate(81.000000, 467.000000)">
                    <g id="icon-nolands-logo-white-small" transform="translate(0.000000, 5.000000)">
                        <path d="M35.096331,9.24642534 L33.7653572,9.24642534 C33.1178006,9.24642534 32.6805791,9.5311221 32.6805791,10.122628 C32.6805791,10.6367406 32.9840136,10.9235103 33.7460478,10.9235103 C34.5639415,10.9235103 35.096331,10.2746505 35.096331,9.45441982 L35.096331,9.24642534 Z M35.096331,7.43528411 L38.2161888,7.43113804 L38.2161888,12.8293202 L35.2494275,12.8293202 L35.2494275,11.8750332 C34.6018708,12.6192526 33.7653572,12.9820337 32.6419602,12.9820337 C30.7972167,12.9820337 29.5421015,11.685005 29.5421015,10.1979482 C29.5421015,9.28512199 29.8282953,8.59134641 30.353099,8.12629565 C29.9655305,7.76904268 29.6800262,7.3205762 29.6800262,6.77605911 C29.6800262,4.59246266 31.4027063,3.37490033 34.2384391,3.37490033 C35.2652889,3.37490033 36.6735005,3.54765322 37.7003503,3.77499601 L37.3769167,5.90953064 C36.3873067,5.75750811 35.3597673,5.71950247 34.5598038,5.71950247 C33.2736555,5.71950247 32.8716049,5.91367671 32.7164395,6.55009834 C32.6371328,7.02275023 32.9929787,7.43528411 33.3412386,7.43528411 L35.096331,7.43528411 Z M65.9935432,7.14920534 C64.4536134,6.53835114 64.0536316,6.48030617 64.0536316,6.04220486 C64.0536316,5.81417105 64.1681092,5.68011481 65.15634,5.68011481 C66.0700914,5.68011481 67.4017548,5.88949131 68.1630995,6.0809015 L68.6389398,3.90836124 C67.6500194,3.54558018 66.0135423,3.37490033 65.1184107,3.37490033 C62.3226761,3.37490033 61.0103221,4.25041195 61.0103221,6.15622176 C61.0103221,7.91139106 62.1695796,8.34880136 64.8522159,9.4537288 C65.5949407,9.7591559 65.9183742,9.87317281 65.9183742,10.1972572 C65.9183742,10.4446393 65.8225165,10.6740552 64.7963564,10.6740552 C63.8832946,10.6740552 62.5502519,10.3879764 61.2758272,10.007229 L60.7055084,12.1417637 C62.0371718,12.6372189 63.5405516,12.9799607 64.7963564,12.9799607 C67.2307282,12.9799607 68.9623734,11.8176793 68.9623734,10.0265774 C68.9623734,8.38749801 68.1244805,7.96736299 65.9935432,7.14920534 L65.9935432,7.14920534 Z M56.3746713,8.1774305 C56.3746713,6.65236804 55.6340155,5.75612608 54.5871666,5.75612608 C53.446529,5.75612608 52.8562111,6.86243555 52.8562111,8.1774305 C52.8562111,9.49104343 53.446529,10.5980439 54.5871666,10.5980439 C55.5774663,10.5980439 56.3746713,9.70249296 56.3746713,8.1774305 L56.3746713,8.1774305 Z M56.3746713,0.134056238 L59.4959084,0.134056238 L59.4959084,12.8279381 L56.3746713,12.8279381 L56.3746713,11.7223197 C55.7478034,12.4858874 54.7402631,12.9799607 53.7120341,12.9799607 C51.2197339,12.9799607 49.7170438,10.7887631 49.7170438,8.1774305 C49.7170438,5.5654069 51.2197339,3.37490033 53.7120341,3.37490033 C54.7402631,3.37490033 55.7478034,3.88901292 56.3746713,4.65050763 L56.3746713,0.134056238 Z M45.7717064,3.37420932 C44.5917602,3.37420932 43.3545753,4.02237814 42.6504694,4.89927178 L42.6504694,3.54558018 L39.6264694,3.54558018 L39.6264694,12.8279381 L42.7656366,12.8279381 L42.7656366,7.91139106 C42.7656366,6.99580078 43.3925046,6.11890714 44.3828042,6.11890714 C45.275867,6.11890714 45.6179204,6.80508159 45.6179204,7.51060437 L45.6179204,12.8279381 L48.7384677,12.8279381 L48.7384677,6.99580078 C48.7384677,4.76590655 47.7874766,3.37420932 45.7717064,3.37420932 L45.7717064,3.37420932 Z M26.8567067,9.20703769 L26.8567067,0.134056238 L23.7375385,0.134056238 L23.7375385,9.68314463 C23.7375385,11.9890501 25.2209192,13 27.1235911,13 C27.5994314,13 28.2835382,12.941955 28.6269708,12.8652528 L28.6269708,10.484027 C28.340777,10.5213416 28.0745822,10.5399989 27.7711478,10.5399989 C26.9911833,10.5399989 26.8567067,10.2172966 26.8567067,9.20703769 L26.8567067,9.20703769 Z M19.6446217,8.1774305 C19.6446217,6.74703662 19.0549934,5.75681709 17.9136661,5.75681709 C16.7723388,5.75681709 16.1634011,6.74703662 16.1634011,8.1774305 C16.1634011,9.60644235 16.7723388,10.5980439 17.9136661,10.5980439 C19.0549934,10.5980439 19.6446217,9.60644235 19.6446217,8.1774305 L19.6446217,8.1774305 Z M22.7830993,8.1774305 C22.7830993,10.7500664 20.9190463,12.9799607 17.9136661,12.9799607 C14.9075962,12.9799607 13.0435433,10.7500664 13.0435433,8.1774305 C13.0435433,5.60479456 14.9075962,3.37490033 17.9136661,3.37490033 C20.9190463,3.37490033 22.7830993,5.60479456 22.7830993,8.1774305 L22.7830993,8.1774305 Z M8.77063464,0.134056238 L11.9849709,0.134056238 L11.9849709,11.3028757 C11.9849709,12.1231064 11.3767227,12.8092808 10.5767592,12.9232977 C10.0443697,13 9.51198016,12.8652528 9.0947578,12.4084941 L3.21502585,5.79482273 L3.21502585,12.8279381 L0,12.8279381 L0,1.63907936 C0,0.743528411 0.742724761,0 1.63647712,0 C2.09231841,0 2.47368033,0.114016903 2.87228285,0.571466539 C4.5473789,2.47796736 6.12661725,4.25041195 8.77063464,7.37793015 L8.77063464,0.134056238 Z" id="icon-nolands-logo-white"></path>
                    </g>
                </g>
            </g>
        </g>
    </g>
</svg>